<?xml version="1.0" encoding="UTF-8"?>
<!DOCTYPE svg PUBLIC "-//W3C//DTD SVG 1.0//EN" "http://www.w3.org/TR/2001/REC-SVG-20010904/DTD/svg10.dtd">
<!-- Creator: CorelDRAW 2018 (64-Bit) -->
<svg xmlns="http://www.w3.org/2000/svg" xml:space="preserve" width="24px" height="24px" version="1.0" style="shape-rendering:geometricPrecision; text-rendering:geometricPrecision; image-rendering:optimizeQuality; fill-rule:evenodd; clip-rule:evenodd"
viewBox="0 0 24 24"
 xmlns:xlink="http://www.w3.org/1999/xlink">
 <defs>
  <style type="text/css">
   <![CDATA[
    .fil0 {fill:black}
   ]]>
  </style>
 </defs>
 <g id="Слой_x0020_1">
  <metadata id="CorelCorpID_0Corel-Layer"/>
  <g id="_2070297362736">
   <path id="path10-5" class="fil0" d="M14.11 12c0,-1.16 -0.94,-2.11 -2.11,-2.11 -1.16,0 -2.11,0.95 -2.11,2.11 0,1.16 0.95,2.11 2.11,2.11 1.17,0 2.11,-0.95 2.11,-2.11z"/>
   <path id="path10-5_0" class="fil0" d="M14.11 6.47c0,-1.17 -0.94,-2.11 -2.11,-2.11 -1.16,0 -2.11,0.94 -2.11,2.11 0,1.16 0.95,2.11 2.11,2.11 1.17,0 2.11,-0.95 2.11,-2.11z"/>
   <path id="path10-5_1" class="fil0" d="M8.58 12c0,-1.16 -0.95,-2.11 -2.11,-2.11 -1.17,0 -2.11,0.95 -2.11,2.11 0,1.16 0.94,2.11 2.11,2.11 1.16,0 2.11,-0.95 2.11,-2.11z"/>
   <path id="path10-5_2" class="fil0" d="M14.11 17.53c0,-1.16 -0.94,-2.11 -2.11,-2.11 -1.16,0 -2.11,0.95 -2.11,2.11 0,1.17 0.95,2.11 2.11,2.11 1.17,0 2.11,-0.94 2.11,-2.11z"/>
   <path id="path10-5_3" class="fil0" d="M19.64 12c0,-1.16 -0.94,-2.11 -2.11,-2.11 -1.16,0 -2.11,0.95 -2.11,2.11 0,1.16 0.95,2.11 2.11,2.11 1.17,0 2.11,-0.95 2.11,-2.11z"/>
  </g>
 </g>
</svg>
